<?xml version="1.0" encoding="UTF-8" standalone="no"?>
<!DOCTYPE svg PUBLIC "-//W3C//DTD SVG 1.1//EN"
 "http://www.w3.org/Graphics/SVG/1.1/DTD/svg11.dtd">
<!-- Generated by graphviz version 2.30.1 (20130214.1330)
 -->
<!-- Title: G Pages: 1 -->
<svg width="1334pt" height="2670pt"
 viewBox="0.00 0.00 1334.00 2670.00" xmlns="http://www.w3.org/2000/svg" xmlns:xlink="http://www.w3.org/1999/xlink">
<g id="graph0" class="graph" transform="scale(1 1) rotate(0) translate(4 2666)">
<title>G</title>
<polygon fill="white" stroke="white" points="-4,5 -4,-2666 1331,-2666 1331,5 -4,5"/>
<g id="clust1" class="cluster"><title>cluster_global</title>
<path fill="none" stroke="gray" d="M176,-908C176,-908 1306,-908 1306,-908 1312,-908 1318,-914 1318,-920 1318,-920 1318,-2642 1318,-2642 1318,-2648 1312,-2654 1306,-2654 1306,-2654 176,-2654 176,-2654 170,-2654 164,-2648 164,-2642 164,-2642 164,-920 164,-920 164,-914 170,-908 176,-908"/>
<text text-anchor="middle" x="741" y="-2641.2" font-family="Times New Roman,serif" font-size="11.00" fill="gray">global</text>
</g>
<!-- \\Dz_Application_Resource_Facebook -->
<g id="node1" class="node"><title>\\Dz_Application_Resource_Facebook</title>
<g id="a_node1"><a xlink:href="Application.Resource.Facebook.html" xlink:title="Dz_Application_Resource_Facebook" target="_parent">
<polygon fill="none" stroke="black" points="1286.5,-2572 1053.5,-2572 1053.5,-2536 1286.5,-2536 1286.5,-2572"/>
<text text-anchor="middle" x="1170" y="-2551.2" font-family="Courier,monospace" font-size="11.00">Dz_Application_Resource_Facebook</text>
</a>
</g>
</g>
<!-- \\Zend_Application_Resource_ResourceAbstract -->
<g id="node37" class="node"><title>\\Zend_Application_Resource_ResourceAbstract</title>
<ellipse fill="none" stroke="black" cx="752" cy="-882" rx="188.467" ry="18"/>
<text text-anchor="middle" x="752" y="-878.3" font-family="Times New Roman,serif" font-size="14.00" fill="gray">\Zend_Application_Resource_ResourceAbstract</text>
</g>
<!-- \\Dz_Application_Resource_Facebook&#45;&gt;\\Zend_Application_Resource_ResourceAbstract -->
<g id="edge1" class="edge"><title>\\Dz_Application_Resource_Facebook&#45;&gt;\\Zend_Application_Resource_ResourceAbstract</title>
<path fill="none" stroke="black" d="M1053.48,-2545.01C1044.62,-2540.51 1036.58,-2534.63 1030,-2527 912.113,-2390.3 1081.58,-1035.57 958,-904 953.761,-899.487 949.159,-895.484 944.263,-891.942"/>
<polygon fill="none" stroke="black" points="946.047,-888.927 935.756,-886.407 942.229,-894.794 946.047,-888.927"/>
</g>
<!-- \\Dz_Controller_Action -->
<g id="node2" class="node"><title>\\Dz_Controller_Action</title>
<g id="a_node2"><a xlink:href="Controller.Action.html" xlink:title="Dz_Controller_Action" target="_parent">
<polygon fill="none" stroke="black" points="1246,-2518 1094,-2518 1094,-2482 1246,-2482 1246,-2518"/>
<text text-anchor="middle" x="1170" y="-2497.2" font-family="Courier,monospace" font-size="11.00">Dz_Controller_Action</text>
</a>
</g>
</g>
<!-- \\Zend_Controller_Action -->
<g id="node38" class="node"><title>\\Zend_Controller_Action</title>
<ellipse fill="none" stroke="black" cx="752" cy="-828" rx="102.882" ry="18"/>
<text text-anchor="middle" x="752" y="-824.3" font-family="Times New Roman,serif" font-size="14.00" fill="gray">\Zend_Controller_Action</text>
</g>
<!-- \\Dz_Controller_Action&#45;&gt;\\Zend_Controller_Action -->
<g id="edge2" class="edge"><title>\\Dz_Controller_Action&#45;&gt;\\Zend_Controller_Action</title>
<path fill="none" stroke="black" d="M1093.86,-2502.74C1070.04,-2499.56 1045.81,-2491.34 1030,-2473 912.466,-2336.73 1079.63,-987.63 958,-855 928.749,-823.104 881.584,-815.261 839.865,-815.891"/>
<polygon fill="none" stroke="black" points="839.554,-812.399 829.669,-816.211 839.774,-819.396 839.554,-812.399"/>
</g>
<!-- \\Dz_Controller_Plugin_ModuleSetup -->
<g id="node3" class="node"><title>\\Dz_Controller_Plugin_ModuleSetup</title>
<g id="a_node3"><a xlink:href="Controller.Plugin.ModuleSetup.html" xlink:title="Dz_Controller_Plugin_ModuleSetup" target="_parent">
<polygon fill="none" stroke="black" points="1286.5,-2464 1053.5,-2464 1053.5,-2428 1286.5,-2428 1286.5,-2464"/>
<text text-anchor="middle" x="1170" y="-2443.2" font-family="Courier,monospace" font-size="11.00">Dz_Controller_Plugin_ModuleSetup</text>
</a>
</g>
</g>
<!-- \\Zend_Controller_Plugin_Abstract -->
<g id="node39" class="node"><title>\\Zend_Controller_Plugin_Abstract</title>
<ellipse fill="none" stroke="black" cx="752" cy="-774" rx="136.476" ry="18"/>
<text text-anchor="middle" x="752" y="-770.3" font-family="Times New Roman,serif" font-size="14.00" fill="gray">\Zend_Controller_Plugin_Abstract</text>
</g>
<!-- \\Dz_Controller_Plugin_ModuleSetup&#45;&gt;\\Zend_Controller_Plugin_Abstract -->
<g id="edge3" class="edge"><title>\\Dz_Controller_Plugin_ModuleSetup&#45;&gt;\\Zend_Controller_Plugin_Abstract</title>
<path fill="none" stroke="black" d="M1053.48,-2437.01C1044.62,-2432.51 1036.58,-2426.63 1030,-2419 912.466,-2282.73 1079.63,-933.63 958,-801 934.316,-775.174 898.888,-765.118 864.116,-762.56"/>
<polygon fill="none" stroke="black" points="864.021,-759.05 853.85,-762.014 863.649,-766.04 864.021,-759.05"/>
</g>
<!-- \\Dz_Controller_Plugin_WwwCheck -->
<g id="node4" class="node"><title>\\Dz_Controller_Plugin_WwwCheck</title>
<g id="a_node4"><a xlink:href="Controller.Plugin.WwwCheck.html" xlink:title="Dz_Controller_Plugin_WwwCheck" target="_parent">
<polygon fill="none" stroke="black" points="1276,-2410 1064,-2410 1064,-2374 1276,-2374 1276,-2410"/>
<text text-anchor="middle" x="1170" y="-2389.2" font-family="Courier,monospace" font-size="11.00">Dz_Controller_Plugin_WwwCheck</text>
</a>
</g>
</g>
<!-- \\Dz_Controller_Plugin_WwwCheck&#45;&gt;\\Zend_Controller_Plugin_Abstract -->
<g id="edge4" class="edge"><title>\\Dz_Controller_Plugin_WwwCheck&#45;&gt;\\Zend_Controller_Plugin_Abstract</title>
<path fill="none" stroke="black" d="M1063.87,-2387.51C1050.92,-2382.7 1039.08,-2375.51 1030,-2365 916.28,-2233.35 1075.68,-929.122 958,-801 934.352,-775.252 899.029,-765.187 864.336,-762.599"/>
<polygon fill="none" stroke="black" points="864.268,-759.09 854.093,-762.043 863.888,-766.08 864.268,-759.09"/>
</g>
<!-- \\Dz_Dbal_Exception -->
<g id="node5" class="node"><title>\\Dz_Dbal_Exception</title>
<g id="a_node5"><a xlink:href="Dbal.Exception.html" xlink:title="Dz_Dbal_Exception" target="_parent">
<polygon fill="none" stroke="black" points="473.5,-2626 342.5,-2626 342.5,-2590 473.5,-2590 473.5,-2626"/>
<text text-anchor="middle" x="408" y="-2605.2" font-family="Courier,monospace" font-size="11.00">Dz_Dbal_Exception</text>
</a>
</g>
</g>
<!-- \\Dz_Exception -->
<g id="node12" class="node"><title>\\Dz_Exception</title>
<g id="a_node12"><a xlink:href="Exception.html" xlink:title="Dz_Exception" target="_parent">
<polygon fill="none" stroke="black" points="270,-2599 172,-2599 172,-2563 270,-2563 270,-2599"/>
<text text-anchor="middle" x="221" y="-2578.2" font-family="Courier,monospace" font-size="11.00">Dz_Exception</text>
</a>
</g>
</g>
<!-- \\Dz_Dbal_Exception&#45;&gt;\\Dz_Exception -->
<g id="edge5" class="edge"><title>\\Dz_Dbal_Exception&#45;&gt;\\Dz_Exception</title>
<path fill="none" stroke="black" d="M342.296,-2598.56C322.066,-2595.6 299.88,-2592.37 280.13,-2589.48"/>
<polygon fill="none" stroke="black" points="280.449,-2585.99 270.048,-2588.01 279.438,-2592.92 280.449,-2585.99"/>
</g>
<!-- \\Dz_Dbal_Logging_Exception -->
<g id="node6" class="node"><title>\\Dz_Dbal_Logging_Exception</title>
<g id="a_node6"><a xlink:href="Dbal.Logging.Exception.html" xlink:title="Dz_Dbal_Logging_Exception" target="_parent">
<polygon fill="none" stroke="black" points="844.5,-2626 659.5,-2626 659.5,-2590 844.5,-2590 844.5,-2626"/>
<text text-anchor="middle" x="752" y="-2605.2" font-family="Courier,monospace" font-size="11.00">Dz_Dbal_Logging_Exception</text>
</a>
</g>
</g>
<!-- \\Dz_Dbal_Logging_Exception&#45;&gt;\\Dz_Dbal_Exception -->
<g id="edge6" class="edge"><title>\\Dz_Dbal_Logging_Exception&#45;&gt;\\Dz_Dbal_Exception</title>
<path fill="none" stroke="black" d="M659.35,-2608C604.351,-2608 535.281,-2608 483.628,-2608"/>
<polygon fill="none" stroke="black" points="483.54,-2604.5 473.54,-2608 483.539,-2611.5 483.54,-2604.5"/>
</g>
<!-- \\Dz_Dbal_Logging_FileSqlLogger_Exception -->
<g id="node7" class="node"><title>\\Dz_Dbal_Logging_FileSqlLogger_Exception</title>
<g id="a_node7"><a xlink:href="Dbal.Logging.FileSqlLogger.Exception.html" xlink:title="Dz_Dbal_Logging_FileSqlLogger_Exception" target="_parent">
<polygon fill="none" stroke="black" points="1310,-2626 1030,-2626 1030,-2590 1310,-2590 1310,-2626"/>
<text text-anchor="middle" x="1170" y="-2605.2" font-family="Courier,monospace" font-size="11.00">Dz_Dbal_Logging_FileSqlLogger_Exception</text>
</a>
</g>
</g>
<!-- \\Dz_Dbal_Logging_FileSqlLogger_Exception&#45;&gt;\\Dz_Dbal_Logging_Exception -->
<g id="edge7" class="edge"><title>\\Dz_Dbal_Logging_FileSqlLogger_Exception&#45;&gt;\\Dz_Dbal_Logging_Exception</title>
<path fill="none" stroke="black" d="M1029.9,-2608C972.539,-2608 907.297,-2608 854.555,-2608"/>
<polygon fill="none" stroke="black" points="854.519,-2604.5 844.519,-2608 854.519,-2611.5 854.519,-2604.5"/>
</g>
<!-- \\Dz_Dbal_Logging_FileSqlLogger -->
<g id="node8" class="node"><title>\\Dz_Dbal_Logging_FileSqlLogger</title>
<g id="a_node8"><a xlink:href="Dbal.Logging.FileSqlLogger.html" xlink:title="Dz_Dbal_Logging_FileSqlLogger" target="_parent">
<polygon fill="none" stroke="black" points="1276,-2356 1064,-2356 1064,-2320 1276,-2320 1276,-2356"/>
<text text-anchor="middle" x="1170" y="-2335.2" font-family="Courier,monospace" font-size="11.00">Dz_Dbal_Logging_FileSqlLogger</text>
</a>
</g>
</g>
<!-- \\Doctrine\\DBAL\\Logging\\SQLLogger -->
<g id="node50" class="node"><title>\\Doctrine\\DBAL\\Logging\\SQLLogger</title>
<ellipse fill="none" stroke="black" cx="752" cy="-720" rx="158.672" ry="18"/>
<text text-anchor="middle" x="752" y="-716.3" font-family="Times New Roman,serif" font-size="14.00" fill="gray">\\Doctrine\\DBAL\\Logging\\SQLLogger</text>
</g>
<!-- \\Dz_Dbal_Logging_FileSqlLogger&#45;&gt;\\Doctrine\\DBAL\\Logging\\SQLLogger -->
<g id="edge26" class="edge"><title>\\Dz_Dbal_Logging_FileSqlLogger&#45;&gt;\\Doctrine\\DBAL\\Logging\\SQLLogger</title>
<path fill="none" stroke="black" stroke-dasharray="1,5" d="M1063.87,-2333.51C1050.92,-2328.7 1039.08,-2321.51 1030,-2311 916.28,-2179.35 1075.68,-875.122 958,-747 946.638,-734.63 932.582,-725.879 917.195,-719.839"/>
<polygon fill="none" stroke="black" points="918.05,-716.43 907.455,-716.42 915.731,-723.034 918.05,-716.43"/>
</g>
<!-- \\Dz_Dbal_Logging_PreformattedSqlLogger -->
<g id="node9" class="node"><title>\\Dz_Dbal_Logging_PreformattedSqlLogger</title>
<g id="a_node9"><a xlink:href="Dbal.Logging.PreformattedSqlLogger.html" xlink:title="Dz_Dbal_Logging_PreformattedSqlLogger" target="_parent">
<polygon fill="none" stroke="black" points="1303,-2302 1037,-2302 1037,-2266 1303,-2266 1303,-2302"/>
<text text-anchor="middle" x="1170" y="-2281.2" font-family="Courier,monospace" font-size="11.00">Dz_Dbal_Logging_PreformattedSqlLogger</text>
</a>
</g>
</g>
<!-- \\Dz_Dbal_Logging_PreformattedSqlLogger&#45;&gt;\\Doctrine\\DBAL\\Logging\\SQLLogger -->
<g id="edge27" class="edge"><title>\\Dz_Dbal_Logging_PreformattedSqlLogger&#45;&gt;\\Doctrine\\DBAL\\Logging\\SQLLogger</title>
<path fill="none" stroke="black" stroke-dasharray="1,5" d="M1039.19,-2265.83C1035.89,-2263.19 1032.81,-2260.25 1030,-2257 920.094,-2129.98 1071.72,-870.614 958,-747 946.679,-734.694 932.69,-725.972 917.379,-719.938"/>
<polygon fill="none" stroke="black" points="918.282,-716.545 907.687,-716.52 915.954,-723.147 918.282,-716.545"/>
</g>
<!-- \\Dz_Entity_Argument -->
<g id="node10" class="node"><title>\\Dz_Entity_Argument</title>
<g id="a_node10"><a xlink:href="Entity.Argument.html" xlink:title="Dz_Entity_Argument" target="_parent">
<polygon fill="none" stroke="black" points="1239,-2248 1101,-2248 1101,-2212 1239,-2212 1239,-2248"/>
<text text-anchor="middle" x="1170" y="-2227.2" font-family="Courier,monospace" font-size="11.00">Dz_Entity_Argument</text>
</a>
</g>
</g>
<!-- \\Dz_Entity_ArgumentCollection -->
<g id="node11" class="node"><title>\\Dz_Entity_ArgumentCollection</title>
<g id="a_node11"><a xlink:href="Entity.ArgumentCollection.html" xlink:title="Dz_Entity_ArgumentCollection" target="_parent">
<polygon fill="none" stroke="black" points="1273,-2194 1067,-2194 1067,-2158 1273,-2158 1273,-2194"/>
<text text-anchor="middle" x="1170" y="-2173.2" font-family="Courier,monospace" font-size="11.00">Dz_Entity_ArgumentCollection</text>
</a>
</g>
</g>
<!-- \\ArrayAccess -->
<g id="node51" class="node"><title>\\ArrayAccess</title>
<ellipse fill="none" stroke="black" cx="752" cy="-666" rx="63.0888" ry="18"/>
<text text-anchor="middle" x="752" y="-662.3" font-family="Times New Roman,serif" font-size="14.00" fill="gray">\\ArrayAccess</text>
</g>
<!-- \\Dz_Entity_ArgumentCollection&#45;&gt;\\ArrayAccess -->
<g id="edge28" class="edge"><title>\\Dz_Entity_ArgumentCollection&#45;&gt;\\ArrayAccess</title>
<path fill="none" stroke="black" stroke-dasharray="1,5" d="M1066.66,-2172.47C1052.64,-2167.67 1039.74,-2160.24 1030,-2149 923.907,-2026.61 1067.77,-812.107 958,-693 922.83,-654.839 862.008,-651.168 815.721,-655.202"/>
<polygon fill="none" stroke="black" points="815.082,-651.749 805.485,-656.238 815.787,-658.713 815.082,-651.749"/>
</g>
<!-- \\IteratorAggregate -->
<g id="node52" class="node"><title>\\IteratorAggregate</title>
<ellipse fill="none" stroke="black" cx="752" cy="-612" rx="78.7863" ry="18"/>
<text text-anchor="middle" x="752" y="-608.3" font-family="Times New Roman,serif" font-size="14.00" fill="gray">\\IteratorAggregate</text>
</g>
<!-- \\Dz_Entity_ArgumentCollection&#45;&gt;\\IteratorAggregate -->
<g id="edge29" class="edge"><title>\\Dz_Entity_ArgumentCollection&#45;&gt;\\IteratorAggregate</title>
<path fill="none" stroke="black" stroke-dasharray="1,5" d="M1066.99,-2172.61C1052.84,-2167.81 1039.81,-2160.34 1030,-2149 920.094,-2021.98 1071.72,-762.614 958,-639 925.236,-603.387 870.134,-597.793 825.305,-600.479"/>
<polygon fill="none" stroke="black" points="825.037,-596.989 815.324,-601.221 825.556,-603.97 825.037,-596.989"/>
</g>
<!-- \\Exception -->
<g id="node40" class="node"><title>\\Exception</title>
<ellipse fill="none" stroke="black" cx="50" cy="-2581" rx="50.0912" ry="18"/>
<text text-anchor="middle" x="50" y="-2577.3" font-family="Times New Roman,serif" font-size="14.00" fill="gray">\Exception</text>
</g>
<!-- \\Dz_Exception&#45;&gt;\\Exception -->
<g id="edge8" class="edge"><title>\\Dz_Exception&#45;&gt;\\Exception</title>
<path fill="none" stroke="black" d="M171.571,-2581C152.551,-2581 130.528,-2581 110.55,-2581"/>
<polygon fill="none" stroke="black" points="110.316,-2577.5 100.316,-2581 110.316,-2584.5 110.316,-2577.5"/>
</g>
<!-- \\Dz_Facebook -->
<g id="node13" class="node"><title>\\Dz_Facebook</title>
<g id="a_node13"><a xlink:href="Facebook.html" xlink:title="Dz_Facebook" target="_parent">
<polygon fill="none" stroke="black" points="1215.5,-2140 1124.5,-2140 1124.5,-2104 1215.5,-2104 1215.5,-2140"/>
<text text-anchor="middle" x="1170" y="-2119.2" font-family="Courier,monospace" font-size="11.00">Dz_Facebook</text>
</a>
</g>
</g>
<!-- \\Facebook -->
<g id="node41" class="node"><title>\\Facebook</title>
<ellipse fill="none" stroke="black" cx="752" cy="-558" rx="50.0912" ry="18"/>
<text text-anchor="middle" x="752" y="-554.3" font-family="Times New Roman,serif" font-size="14.00" fill="gray">\Facebook</text>
</g>
<!-- \\Dz_Facebook&#45;&gt;\\Facebook -->
<g id="edge9" class="edge"><title>\\Dz_Facebook&#45;&gt;\\Facebook</title>
<path fill="none" stroke="black" d="M1124.45,-2126.41C1093.11,-2126.82 1052.84,-2121.4 1030,-2095 920.094,-1967.98 1071.72,-708.614 958,-585 920.413,-544.143 853.424,-542.797 806.276,-548.134"/>
<polygon fill="none" stroke="black" points="805.718,-544.677 796.237,-549.404 806.597,-551.621 805.718,-544.677"/>
</g>
<!-- \\Dz_Filter_StringTruncate -->
<g id="node14" class="node"><title>\\Dz_Filter_StringTruncate</title>
<g id="a_node14"><a xlink:href="Filter.StringTruncate.html" xlink:title="Dz_Filter_StringTruncate" target="_parent">
<polygon fill="none" stroke="black" points="1259.5,-2086 1080.5,-2086 1080.5,-2050 1259.5,-2050 1259.5,-2086"/>
<text text-anchor="middle" x="1170" y="-2065.2" font-family="Courier,monospace" font-size="11.00">Dz_Filter_StringTruncate</text>
</a>
</g>
</g>
<!-- \\Zend_Filter_Interface -->
<g id="node53" class="node"><title>\\Zend_Filter_Interface</title>
<ellipse fill="none" stroke="black" cx="752" cy="-504" rx="94.4839" ry="18"/>
<text text-anchor="middle" x="752" y="-500.3" font-family="Times New Roman,serif" font-size="14.00" fill="gray">\\Zend_Filter_Interface</text>
</g>
<!-- \\Dz_Filter_StringTruncate&#45;&gt;\\Zend_Filter_Interface -->
<g id="edge30" class="edge"><title>\\Dz_Filter_StringTruncate&#45;&gt;\\Zend_Filter_Interface</title>
<path fill="none" stroke="black" stroke-dasharray="1,5" d="M1080.49,-2068.35C1061.27,-2064.09 1042.87,-2055.87 1030,-2041 920.094,-1913.98 1071.72,-654.614 958,-531 927.512,-497.86 877.68,-490.715 834.782,-492.046"/>
<polygon fill="none" stroke="black" points="834.438,-488.559 824.612,-492.521 834.764,-495.551 834.438,-488.559"/>
</g>
<!-- \\Dz_Filter_StripSmartQuotes -->
<g id="node15" class="node"><title>\\Dz_Filter_StripSmartQuotes</title>
<g id="a_node15"><a xlink:href="Filter.StripSmartQuotes.html" xlink:title="Dz_Filter_StripSmartQuotes" target="_parent">
<polygon fill="none" stroke="black" points="1266,-2032 1074,-2032 1074,-1996 1266,-1996 1266,-2032"/>
<text text-anchor="middle" x="1170" y="-2011.2" font-family="Courier,monospace" font-size="11.00">Dz_Filter_StripSmartQuotes</text>
</a>
</g>
</g>
<!-- \\Dz_Filter_StripSmartQuotes&#45;&gt;\\Zend_Filter_Interface -->
<g id="edge31" class="edge"><title>\\Dz_Filter_StripSmartQuotes&#45;&gt;\\Zend_Filter_Interface</title>
<path fill="none" stroke="black" stroke-dasharray="1,5" d="M1073.7,-2012.64C1056.99,-2008.03 1041.35,-2000.1 1030,-1987 923.907,-1864.61 1067.77,-650.107 958,-531 927.595,-498.009 878.017,-490.795 835.234,-492.053"/>
<polygon fill="none" stroke="black" points="834.921,-488.564 825.089,-492.51 835.236,-495.556 834.921,-488.564"/>
</g>
<!-- \\Dz_Geocode -->
<g id="node16" class="node"><title>\\Dz_Geocode</title>
<g id="a_node16"><a xlink:href="Geocode.html" xlink:title="Dz_Geocode" target="_parent">
<polygon fill="none" stroke="black" points="1212,-1978 1128,-1978 1128,-1942 1212,-1942 1212,-1978"/>
<text text-anchor="middle" x="1170" y="-1957.2" font-family="Courier,monospace" font-size="11.00">Dz_Geocode</text>
</a>
</g>
</g>
<!-- \\Dz_Http_Client -->
<g id="node17" class="node"><title>\\Dz_Http_Client</title>
<g id="a_node17"><a xlink:href="Http.Client.html" xlink:title="Dz_Http_Client" target="_parent">
<polygon fill="none" stroke="black" points="1225.5,-1924 1114.5,-1924 1114.5,-1888 1225.5,-1888 1225.5,-1924"/>
<text text-anchor="middle" x="1170" y="-1903.2" font-family="Courier,monospace" font-size="11.00">Dz_Http_Client</text>
</a>
</g>
</g>
<!-- \\Dz_Image_Imagick -->
<g id="node18" class="node"><title>\\Dz_Image_Imagick</title>
<g id="a_node18"><a xlink:href="Image.Imagick.html" xlink:title="Dz_Image_Imagick" target="_parent">
<polygon fill="none" stroke="black" points="1232.5,-1870 1107.5,-1870 1107.5,-1834 1232.5,-1834 1232.5,-1870"/>
<text text-anchor="middle" x="1170" y="-1849.2" font-family="Courier,monospace" font-size="11.00">Dz_Image_Imagick</text>
</a>
</g>
</g>
<!-- \\Imagick -->
<g id="node42" class="node"><title>\\Imagick</title>
<ellipse fill="none" stroke="black" cx="752" cy="-450" rx="42.4939" ry="18"/>
<text text-anchor="middle" x="752" y="-446.3" font-family="Times New Roman,serif" font-size="14.00" fill="gray">\Imagick</text>
</g>
<!-- \\Dz_Image_Imagick&#45;&gt;\\Imagick -->
<g id="edge10" class="edge"><title>\\Dz_Image_Imagick&#45;&gt;\\Imagick</title>
<path fill="none" stroke="black" d="M1107.26,-1855.95C1079.54,-1854.2 1048.88,-1846.7 1030,-1825 833.066,-1598.71 1161.73,-697.187 958,-477 918.706,-434.532 847.632,-434.837 800.37,-440.889"/>
<polygon fill="none" stroke="black" points="799.786,-437.436 790.373,-442.299 800.764,-444.368 799.786,-437.436"/>
</g>
<!-- \\Dz_Mail_Exception -->
<g id="node19" class="node"><title>\\Dz_Mail_Exception</title>
<g id="a_node19"><a xlink:href="Mail.Exception.html" xlink:title="Dz_Mail_Exception" target="_parent">
<polygon fill="none" stroke="black" points="473.5,-2572 342.5,-2572 342.5,-2536 473.5,-2536 473.5,-2572"/>
<text text-anchor="middle" x="408" y="-2551.2" font-family="Courier,monospace" font-size="11.00">Dz_Mail_Exception</text>
</a>
</g>
</g>
<!-- \\Dz_Mail_Exception&#45;&gt;\\Dz_Exception -->
<g id="edge11" class="edge"><title>\\Dz_Mail_Exception&#45;&gt;\\Dz_Exception</title>
<path fill="none" stroke="black" d="M342.296,-2563.44C322.066,-2566.4 299.88,-2569.63 280.13,-2572.52"/>
<polygon fill="none" stroke="black" points="279.438,-2569.08 270.048,-2573.99 280.449,-2576.01 279.438,-2569.08"/>
</g>
<!-- \\Dz_Mail -->
<g id="node20" class="node"><title>\\Dz_Mail</title>
<g id="a_node20"><a xlink:href="Mail.html" xlink:title="Dz_Mail" target="_parent">
<polygon fill="none" stroke="black" points="1202,-1816 1138,-1816 1138,-1780 1202,-1780 1202,-1816"/>
<text text-anchor="middle" x="1170" y="-1795.2" font-family="Courier,monospace" font-size="11.00">Dz_Mail</text>
</a>
</g>
</g>
<!-- \\Zend_Mail -->
<g id="node43" class="node"><title>\\Zend_Mail</title>
<ellipse fill="none" stroke="black" cx="752" cy="-396" rx="51.9908" ry="18"/>
<text text-anchor="middle" x="752" y="-392.3" font-family="Times New Roman,serif" font-size="14.00" fill="gray">\Zend_Mail</text>
</g>
<!-- \\Dz_Mail&#45;&gt;\\Zend_Mail -->
<g id="edge12" class="edge"><title>\\Dz_Mail&#45;&gt;\\Zend_Mail</title>
<path fill="none" stroke="black" d="M1137.71,-1801.87C1105.46,-1803.91 1056.31,-1801.23 1030,-1771 833.066,-1544.71 1161.73,-643.187 958,-423 920.637,-382.619 854.54,-380.91 807.503,-386.043"/>
<polygon fill="none" stroke="black" points="806.976,-382.581 797.475,-387.27 807.827,-389.529 806.976,-382.581"/>
</g>
<!-- \\Dz_Orm_Function_Md5 -->
<g id="node21" class="node"><title>\\Dz_Orm_Function_Md5</title>
<g id="a_node21"><a xlink:href="Orm.Function.Md5.html" xlink:title="Dz_Orm_Function_Md5" target="_parent">
<polygon fill="none" stroke="black" points="1242.5,-1762 1097.5,-1762 1097.5,-1726 1242.5,-1726 1242.5,-1762"/>
<text text-anchor="middle" x="1170" y="-1741.2" font-family="Courier,monospace" font-size="11.00">Dz_Orm_Function_Md5</text>
</a>
</g>
</g>
<!-- \\Doctrine\\ORM\\Query\\AST\\Functions\\FunctionNode -->
<g id="node44" class="node"><title>\\Doctrine\\ORM\\Query\\AST\\Functions\\FunctionNode</title>
<ellipse fill="none" stroke="black" cx="752" cy="-342" rx="206.063" ry="18"/>
<text text-anchor="middle" x="752" y="-338.3" font-family="Times New Roman,serif" font-size="14.00" fill="gray">\Doctrine\ORM\Query\AST\Functions\FunctionNode</text>
</g>
<!-- \\Dz_Orm_Function_Md5&#45;&gt;\\Doctrine\\ORM\\Query\\AST\\Functions\\FunctionNode -->
<g id="edge13" class="edge"><title>\\Dz_Orm_Function_Md5&#45;&gt;\\Doctrine\\ORM\\Query\\AST\\Functions\\FunctionNode</title>
<path fill="none" stroke="black" d="M1097.21,-1747.06C1072.37,-1744.2 1046.62,-1736.1 1030,-1717 833.066,-1490.71 1161.73,-589.187 958,-369 953.52,-364.158 948.627,-359.873 943.404,-356.088"/>
<polygon fill="none" stroke="black" points="945.219,-353.093 934.935,-350.545 941.386,-358.95 945.219,-353.093"/>
</g>
<!-- \\Dz_Orm_Function_Rand -->
<g id="node22" class="node"><title>\\Dz_Orm_Function_Rand</title>
<g id="a_node22"><a xlink:href="Orm.Function.Rand.html" xlink:title="Dz_Orm_Function_Rand" target="_parent">
<polygon fill="none" stroke="black" points="1246,-1708 1094,-1708 1094,-1672 1246,-1672 1246,-1708"/>
<text text-anchor="middle" x="1170" y="-1687.2" font-family="Courier,monospace" font-size="11.00">Dz_Orm_Function_Rand</text>
</a>
</g>
</g>
<!-- \\Dz_Orm_Function_Rand&#45;&gt;\\Doctrine\\ORM\\Query\\AST\\Functions\\FunctionNode -->
<g id="edge14" class="edge"><title>\\Dz_Orm_Function_Rand&#45;&gt;\\Doctrine\\ORM\\Query\\AST\\Functions\\FunctionNode</title>
<path fill="none" stroke="black" d="M1093.97,-1692.64C1070.16,-1689.45 1045.92,-1681.25 1030,-1663 840.69,-1445.96 1153.83,-580.175 958,-369 953.515,-364.163 948.617,-359.882 943.39,-356.101"/>
<polygon fill="none" stroke="black" points="945.201,-353.104 934.916,-350.563 941.372,-358.964 945.201,-353.104"/>
</g>
<!-- \\Dz_Paginator_Adapter_Doctrine -->
<g id="node23" class="node"><title>\\Dz_Paginator_Adapter_Doctrine</title>
<g id="a_node23"><a xlink:href="Paginator.Adapter.Doctrine.html" xlink:title="Dz_Paginator_Adapter_Doctrine" target="_parent">
<polygon fill="none" stroke="black" points="1276,-1654 1064,-1654 1064,-1618 1276,-1618 1276,-1654"/>
<text text-anchor="middle" x="1170" y="-1633.2" font-family="Courier,monospace" font-size="11.00">Dz_Paginator_Adapter_Doctrine</text>
</a>
</g>
</g>
<!-- \\Zend_Paginator_Adapter_Interface -->
<g id="node54" class="node"><title>\\Zend_Paginator_Adapter_Interface</title>
<ellipse fill="none" stroke="black" cx="752" cy="-288" rx="143.775" ry="18"/>
<text text-anchor="middle" x="752" y="-284.3" font-family="Times New Roman,serif" font-size="14.00" fill="gray">\\Zend_Paginator_Adapter_Interface</text>
</g>
<!-- \\Dz_Paginator_Adapter_Doctrine&#45;&gt;\\Zend_Paginator_Adapter_Interface -->
<g id="edge32" class="edge"><title>\\Dz_Paginator_Adapter_Doctrine&#45;&gt;\\Zend_Paginator_Adapter_Interface</title>
<path fill="none" stroke="black" stroke-dasharray="1,5" d="M1063.96,-1631.44C1051,-1626.63 1039.13,-1619.47 1030,-1609 840.69,-1391.96 1153.83,-526.175 958,-315 936.525,-291.842 905.599,-281.413 874.254,-277.698"/>
<polygon fill="none" stroke="black" points="874.362,-274.193 864.074,-276.72 873.693,-281.161 874.362,-274.193"/>
</g>
<!-- \\Dz_Security_Hash -->
<g id="node24" class="node"><title>\\Dz_Security_Hash</title>
<g id="a_node24"><a xlink:href="Security.Hash.html" xlink:title="Dz_Security_Hash" target="_parent">
<polygon fill="none" stroke="black" points="1232.5,-1600 1107.5,-1600 1107.5,-1564 1232.5,-1564 1232.5,-1600"/>
<text text-anchor="middle" x="1170" y="-1579.2" font-family="Courier,monospace" font-size="11.00">Dz_Security_Hash</text>
</a>
</g>
</g>
<!-- \\Dz_Validate_Cnpj -->
<g id="node25" class="node"><title>\\Dz_Validate_Cnpj</title>
<g id="a_node25"><a xlink:href="Validate.Cnpj.html" xlink:title="Dz_Validate_Cnpj" target="_parent">
<polygon fill="none" stroke="black" points="1232.5,-1546 1107.5,-1546 1107.5,-1510 1232.5,-1510 1232.5,-1546"/>
<text text-anchor="middle" x="1170" y="-1525.2" font-family="Courier,monospace" font-size="11.00">Dz_Validate_Cnpj</text>
</a>
</g>
</g>
<!-- \\Zend_Validate_Abstract -->
<g id="node45" class="node"><title>\\Zend_Validate_Abstract</title>
<ellipse fill="none" stroke="black" cx="752" cy="-234" rx="102.082" ry="18"/>
<text text-anchor="middle" x="752" y="-230.3" font-family="Times New Roman,serif" font-size="14.00" fill="gray">\Zend_Validate_Abstract</text>
</g>
<!-- \\Dz_Validate_Cnpj&#45;&gt;\\Zend_Validate_Abstract -->
<g id="edge15" class="edge"><title>\\Dz_Validate_Cnpj&#45;&gt;\\Zend_Validate_Abstract</title>
<path fill="none" stroke="black" d="M1107.31,-1531.91C1079.59,-1530.15 1048.93,-1522.65 1030,-1501 848.315,-1293.21 1145.93,-463.163 958,-261 928.647,-229.424 881.718,-221.532 840.163,-222.052"/>
<polygon fill="none" stroke="black" points="839.902,-218.558 830.007,-222.343 840.103,-225.555 839.902,-218.558"/>
</g>
<!-- \\Dz_Validate_Cpf -->
<g id="node26" class="node"><title>\\Dz_Validate_Cpf</title>
<g id="a_node26"><a xlink:href="Validate.Cpf.html" xlink:title="Dz_Validate_Cpf" target="_parent">
<polygon fill="none" stroke="black" points="1229,-1492 1111,-1492 1111,-1456 1229,-1456 1229,-1492"/>
<text text-anchor="middle" x="1170" y="-1471.2" font-family="Courier,monospace" font-size="11.00">Dz_Validate_Cpf</text>
</a>
</g>
</g>
<!-- \\Dz_Validate_Cpf&#45;&gt;\\Zend_Validate_Abstract -->
<g id="edge16" class="edge"><title>\\Dz_Validate_Cpf&#45;&gt;\\Zend_Validate_Abstract</title>
<path fill="none" stroke="black" d="M1110.87,-1478.09C1082.27,-1476.74 1049.77,-1469.55 1030,-1447 855.938,-1248.46 1138.03,-454.153 958,-261 928.606,-229.462 881.674,-221.573 840.128,-222.085"/>
<polygon fill="none" stroke="black" points="839.87,-218.59 829.974,-222.374 840.07,-225.588 839.87,-218.59"/>
</g>
<!-- \\Dz_Version -->
<g id="node27" class="node"><title>\\Dz_Version</title>
<g id="a_node27"><a xlink:href="Version.html" xlink:title="Dz_Version" target="_parent">
<polygon fill="none" stroke="black" points="1212,-1438 1128,-1438 1128,-1402 1212,-1402 1212,-1438"/>
<text text-anchor="middle" x="1170" y="-1417.2" font-family="Courier,monospace" font-size="11.00">Dz_Version</text>
</a>
</g>
</g>
<!-- \\Dz_View_Helper_AbsoluteUrl -->
<g id="node28" class="node"><title>\\Dz_View_Helper_AbsoluteUrl</title>
<g id="a_node28"><a xlink:href="View.Helper.AbsoluteUrl.html" xlink:title="Dz_View_Helper_AbsoluteUrl" target="_parent">
<polygon fill="none" stroke="black" points="1266,-1384 1074,-1384 1074,-1348 1266,-1348 1266,-1384"/>
<text text-anchor="middle" x="1170" y="-1363.2" font-family="Courier,monospace" font-size="11.00">Dz_View_Helper_AbsoluteUrl</text>
</a>
</g>
</g>
<!-- \\Zend_View_Helper_Url -->
<g id="node46" class="node"><title>\\Zend_View_Helper_Url</title>
<ellipse fill="none" stroke="black" cx="752" cy="-180" rx="100.182" ry="18"/>
<text text-anchor="middle" x="752" y="-176.3" font-family="Times New Roman,serif" font-size="14.00" fill="gray">\Zend_View_Helper_Url</text>
</g>
<!-- \\Dz_View_Helper_AbsoluteUrl&#45;&gt;\\Zend_View_Helper_Url -->
<g id="edge17" class="edge"><title>\\Dz_View_Helper_AbsoluteUrl&#45;&gt;\\Zend_View_Helper_Url</title>
<path fill="none" stroke="black" d="M1073.85,-1364.52C1057.13,-1359.91 1041.44,-1352.02 1030,-1339 863.56,-1149.7 1130.13,-391.143 958,-207 928.334,-175.262 880.902,-167.498 839.132,-168.134"/>
<polygon fill="none" stroke="black" points="838.814,-164.642 828.929,-168.453 839.033,-171.638 838.814,-164.642"/>
</g>
<!-- \\Dz_View_Helper_FormatDate -->
<g id="node29" class="node"><title>\\Dz_View_Helper_FormatDate</title>
<g id="a_node29"><a xlink:href="View.Helper.FormatDate.html" xlink:title="Dz_View_Helper_FormatDate" target="_parent">
<polygon fill="none" stroke="black" points="1262.5,-1330 1077.5,-1330 1077.5,-1294 1262.5,-1294 1262.5,-1330"/>
<text text-anchor="middle" x="1170" y="-1309.2" font-family="Courier,monospace" font-size="11.00">Dz_View_Helper_FormatDate</text>
</a>
</g>
</g>
<!-- \\Zend_View_Helper_Abstract -->
<g id="node47" class="node"><title>\\Zend_View_Helper_Abstract</title>
<ellipse fill="none" stroke="black" cx="752" cy="-126" rx="120.479" ry="18"/>
<text text-anchor="middle" x="752" y="-122.3" font-family="Times New Roman,serif" font-size="14.00" fill="gray">\Zend_View_Helper_Abstract</text>
</g>
<!-- \\Dz_View_Helper_FormatDate&#45;&gt;\\Zend_View_Helper_Abstract -->
<g id="edge18" class="edge"><title>\\Dz_View_Helper_FormatDate&#45;&gt;\\Zend_View_Helper_Abstract</title>
<path fill="none" stroke="black" d="M1077.42,-1311.45C1059.37,-1307 1042.26,-1298.94 1030,-1285 863.56,-1095.7 1130.13,-337.143 958,-153 931.447,-124.593 890.662,-115.392 852.443,-114.229"/>
<polygon fill="none" stroke="black" points="852.314,-110.727 842.271,-114.102 852.226,-117.727 852.314,-110.727"/>
</g>
<!-- \\Dz_View_Helper_HeadMeta -->
<g id="node30" class="node"><title>\\Dz_View_Helper_HeadMeta</title>
<g id="a_node30"><a xlink:href="View.Helper.HeadMeta.html" xlink:title="Dz_View_Helper_HeadMeta" target="_parent">
<polygon fill="none" stroke="black" points="1256,-1006 1084,-1006 1084,-970 1256,-970 1256,-1006"/>
<text text-anchor="middle" x="1170" y="-985.2" font-family="Courier,monospace" font-size="11.00">Dz_View_Helper_HeadMeta</text>
</a>
</g>
</g>
<!-- \\Zend_View_Helper_HeadMeta -->
<g id="node48" class="node"><title>\\Zend_View_Helper_HeadMeta</title>
<ellipse fill="none" stroke="black" cx="752" cy="-72" rx="126.178" ry="18"/>
<text text-anchor="middle" x="752" y="-68.3" font-family="Times New Roman,serif" font-size="14.00" fill="gray">\Zend_View_Helper_HeadMeta</text>
</g>
<!-- \\Dz_View_Helper_HeadMeta&#45;&gt;\\Zend_View_Helper_HeadMeta -->
<g id="edge19" class="edge"><title>\\Dz_View_Helper_HeadMeta&#45;&gt;\\Zend_View_Helper_HeadMeta</title>
<path fill="none" stroke="black" d="M1083.75,-988.631C1063.49,-984.563 1043.79,-976.372 1030,-961 901.65,-817.906 1090.65,-238.119 958,-99 932.696,-72.4617 894.948,-62.8029 858.714,-60.7785"/>
<polygon fill="none" stroke="black" points="858.669,-57.2745 848.546,-60.4022 858.41,-64.2697 858.669,-57.2745"/>
</g>
<!-- \\Dz_View_Helper_MaskNumber -->
<g id="node31" class="node"><title>\\Dz_View_Helper_MaskNumber</title>
<g id="a_node31"><a xlink:href="View.Helper.MaskNumber.html" xlink:title="Dz_View_Helper_MaskNumber" target="_parent">
<polygon fill="none" stroke="black" points="1262.5,-1276 1077.5,-1276 1077.5,-1240 1262.5,-1240 1262.5,-1276"/>
<text text-anchor="middle" x="1170" y="-1255.2" font-family="Courier,monospace" font-size="11.00">Dz_View_Helper_MaskNumber</text>
</a>
</g>
</g>
<!-- \\Dz_View_Helper_MaskNumber&#45;&gt;\\Zend_View_Helper_Abstract -->
<g id="edge20" class="edge"><title>\\Dz_View_Helper_MaskNumber&#45;&gt;\\Zend_View_Helper_Abstract</title>
<path fill="none" stroke="black" d="M1077.45,-1257.42C1059.4,-1252.98 1042.28,-1244.92 1030,-1231 871.181,-1050.95 1122.23,-328.135 958,-153 931.458,-124.696 890.783,-115.48 852.641,-114.279"/>
<polygon fill="none" stroke="black" points="852.535,-110.777 842.489,-114.141 852.44,-117.776 852.535,-110.777"/>
</g>
<!-- \\Dz_View_Helper_RandomPartial -->
<g id="node32" class="node"><title>\\Dz_View_Helper_RandomPartial</title>
<g id="a_node32"><a xlink:href="View.Helper.RandomPartial.html" xlink:title="Dz_View_Helper_RandomPartial" target="_parent">
<polygon fill="none" stroke="black" points="1273,-952 1067,-952 1067,-916 1273,-916 1273,-952"/>
<text text-anchor="middle" x="1170" y="-931.2" font-family="Courier,monospace" font-size="11.00">Dz_View_Helper_RandomPartial</text>
</a>
</g>
</g>
<!-- \\Zend_View_Helper_Partial -->
<g id="node49" class="node"><title>\\Zend_View_Helper_Partial</title>
<ellipse fill="none" stroke="black" cx="752" cy="-18" rx="111.28" ry="18"/>
<text text-anchor="middle" x="752" y="-14.3" font-family="Times New Roman,serif" font-size="14.00" fill="gray">\Zend_View_Helper_Partial</text>
</g>
<!-- \\Dz_View_Helper_RandomPartial&#45;&gt;\\Zend_View_Helper_Partial -->
<g id="edge21" class="edge"><title>\\Dz_View_Helper_RandomPartial&#45;&gt;\\Zend_View_Helper_Partial</title>
<path fill="none" stroke="black" d="M1167.42,-915.652C1157.04,-799.604 1094.73,-168.439 958,-45 930.722,-20.3733 892.477,-11.1252 856.399,-8.89428"/>
<polygon fill="none" stroke="black" points="856.437,-5.39262 846.291,-8.44417 856.126,-12.3857 856.437,-5.39262"/>
</g>
<!-- \\Dz_View_Helper_RequestInfo -->
<g id="node33" class="node"><title>\\Dz_View_Helper_RequestInfo</title>
<g id="a_node33"><a xlink:href="View.Helper.RequestInfo.html" xlink:title="Dz_View_Helper_RequestInfo" target="_parent">
<polygon fill="none" stroke="black" points="1266,-1222 1074,-1222 1074,-1186 1266,-1186 1266,-1222"/>
<text text-anchor="middle" x="1170" y="-1201.2" font-family="Courier,monospace" font-size="11.00">Dz_View_Helper_RequestInfo</text>
</a>
</g>
</g>
<!-- \\Dz_View_Helper_RequestInfo&#45;&gt;\\Zend_View_Helper_Abstract -->
<g id="edge22" class="edge"><title>\\Dz_View_Helper_RequestInfo&#45;&gt;\\Zend_View_Helper_Abstract</title>
<path fill="none" stroke="black" d="M1073.91,-1202.46C1057.19,-1197.85 1041.49,-1189.98 1030,-1177 878.801,-1006.19 1114.33,-319.128 958,-153 931.522,-124.862 891.071,-115.612 853.078,-114.341"/>
<polygon fill="none" stroke="black" points="853.016,-110.84 842.963,-114.184 852.907,-117.839 853.016,-110.84"/>
</g>
<!-- \\Dz_View_Helper_ScriptContext -->
<g id="node34" class="node"><title>\\Dz_View_Helper_ScriptContext</title>
<g id="a_node34"><a xlink:href="View.Helper.ScriptContext.html" xlink:title="Dz_View_Helper_ScriptContext" target="_parent">
<polygon fill="none" stroke="black" points="1273,-1168 1067,-1168 1067,-1132 1273,-1132 1273,-1168"/>
<text text-anchor="middle" x="1170" y="-1147.2" font-family="Courier,monospace" font-size="11.00">Dz_View_Helper_ScriptContext</text>
</a>
</g>
</g>
<!-- \\Dz_View_Helper_ScriptContext&#45;&gt;\\Zend_View_Helper_Abstract -->
<g id="edge23" class="edge"><title>\\Dz_View_Helper_ScriptContext&#45;&gt;\\Zend_View_Helper_Abstract</title>
<path fill="none" stroke="black" d="M1066.91,-1146.26C1052.85,-1141.49 1039.88,-1134.12 1030,-1123 886.419,-961.43 1106.43,-310.123 958,-153 931.524,-124.974 891.18,-115.711 853.265,-114.401"/>
<polygon fill="none" stroke="black" points="853.228,-110.9 843.171,-114.233 853.111,-117.899 853.228,-110.9"/>
</g>
<!-- \\Dz_View_Helper_Slug -->
<g id="node35" class="node"><title>\\Dz_View_Helper_Slug</title>
<g id="a_node35"><a xlink:href="View.Helper.Slug.html" xlink:title="Dz_View_Helper_Slug" target="_parent">
<polygon fill="none" stroke="black" points="1242.5,-1114 1097.5,-1114 1097.5,-1078 1242.5,-1078 1242.5,-1114"/>
<text text-anchor="middle" x="1170" y="-1093.2" font-family="Courier,monospace" font-size="11.00">Dz_View_Helper_Slug</text>
</a>
</g>
</g>
<!-- \\Dz_View_Helper_Slug&#45;&gt;\\Zend_View_Helper_Abstract -->
<g id="edge24" class="edge"><title>\\Dz_View_Helper_Slug&#45;&gt;\\Zend_View_Helper_Abstract</title>
<path fill="none" stroke="black" d="M1097.47,-1098.84C1072.66,-1095.95 1046.86,-1087.89 1030,-1069 894.036,-916.67 1098.54,-301.12 958,-153 931.519,-125.091 891.282,-115.818 853.447,-114.468"/>
<polygon fill="none" stroke="black" points="853.434,-110.968 843.373,-114.289 853.309,-117.966 853.434,-110.968"/>
</g>
<!-- \\Dz_View_Helper_Truncate -->
<g id="node36" class="node"><title>\\Dz_View_Helper_Truncate</title>
<g id="a_node36"><a xlink:href="View.Helper.Truncate.html" xlink:title="Dz_View_Helper_Truncate" target="_parent">
<polygon fill="none" stroke="black" points="1256,-1060 1084,-1060 1084,-1024 1256,-1024 1256,-1060"/>
<text text-anchor="middle" x="1170" y="-1039.2" font-family="Courier,monospace" font-size="11.00">Dz_View_Helper_Truncate</text>
</a>
</g>
</g>
<!-- \\Dz_View_Helper_Truncate&#45;&gt;\\Zend_View_Helper_Abstract -->
<g id="edge25" class="edge"><title>\\Dz_View_Helper_Truncate&#45;&gt;\\Zend_View_Helper_Abstract</title>
<path fill="none" stroke="black" d="M1083.75,-1042.63C1063.49,-1038.56 1043.79,-1030.37 1030,-1015 901.65,-871.906 1090.65,-292.119 958,-153 931.565,-125.275 891.547,-115.973 853.864,-114.552"/>
<polygon fill="none" stroke="black" points="853.897,-111.052 843.829,-114.352 853.757,-118.051 853.897,-111.052"/>
</g>
</g>
</svg>
