<?xml version="1.0" encoding="UTF-8" standalone="no"?>
<!DOCTYPE svg PUBLIC "-//W3C//DTD SVG 1.1//EN"
 "http://www.w3.org/Graphics/SVG/1.1/DTD/svg11.dtd">
<!-- Generated by graphviz version 2.30.1 (20130214.1330)
 -->
<!-- Title: G Pages: 1 -->
<svg width="306pt" height="258pt"
 viewBox="0.00 0.00 306.00 258.00" xmlns="http://www.w3.org/2000/svg" xmlns:xlink="http://www.w3.org/1999/xlink">
<g id="graph0" class="graph" transform="scale(1 1) rotate(0) translate(4 254)">
<title>G</title>
<polygon fill="white" stroke="white" points="-4,5 -4,-254 303,-254 303,5 -4,5"/>
<g id="clust1" class="cluster"><title>cluster_global</title>
<path fill="none" stroke="gray" d="M160,-8C160,-8 278,-8 278,-8 284,-8 290,-14 290,-20 290,-20 290,-230 290,-230 290,-236 284,-242 278,-242 278,-242 160,-242 160,-242 154,-242 148,-236 148,-230 148,-230 148,-20 148,-20 148,-14 154,-8 160,-8"/>
<text text-anchor="middle" x="219" y="-229.2" font-family="Times New Roman,serif" font-size="11.00" fill="gray">global</text>
</g>
<!-- \\Dz_Geocode -->
<g id="node1" class="node"><title>\\Dz_Geocode</title>
<g id="a_node1"><a xlink:href="Geocode.html" xlink:title="Dz_Geocode" target="_parent">
<polygon fill="none" stroke="black" points="261,-214 177,-214 177,-178 261,-178 261,-214"/>
<text text-anchor="middle" x="219" y="-193.2" font-family="Courier,monospace" font-size="11.00">Dz_Geocode</text>
</a>
</g>
</g>
<!-- \\Dz_Http_Client -->
<g id="node2" class="node"><title>\\Dz_Http_Client</title>
<g id="a_node2"><a xlink:href="Http.Client.html" xlink:title="Dz_Http_Client" target="_parent">
<polygon fill="none" stroke="black" points="274.5,-160 163.5,-160 163.5,-124 274.5,-124 274.5,-160"/>
<text text-anchor="middle" x="219" y="-139.2" font-family="Courier,monospace" font-size="11.00">Dz_Http_Client</text>
</a>
</g>
</g>
<!-- \\Dz_Image_Imagick -->
<g id="node3" class="node"><title>\\Dz_Image_Imagick</title>
<g id="a_node3"><a xlink:href="Image.Imagick.html" xlink:title="Dz_Image_Imagick" target="_parent">
<polygon fill="none" stroke="black" points="281.5,-106 156.5,-106 156.5,-70 281.5,-70 281.5,-106"/>
<text text-anchor="middle" x="219" y="-85.2" font-family="Courier,monospace" font-size="11.00">Dz_Image_Imagick</text>
</a>
</g>
</g>
<!-- \\Imagick -->
<g id="node5" class="node"><title>\\Imagick</title>
<ellipse fill="none" stroke="black" cx="42" cy="-88" rx="42.4939" ry="18"/>
<text text-anchor="middle" x="42" y="-84.3" font-family="Times New Roman,serif" font-size="14.00" fill="gray">\Imagick</text>
</g>
<!-- \\Dz_Image_Imagick&#45;&gt;\\Imagick -->
<g id="edge1" class="edge"><title>\\Dz_Image_Imagick&#45;&gt;\\Imagick</title>
<path fill="none" stroke="black" d="M156.302,-88C136.115,-88 113.917,-88 94.5595,-88"/>
<polygon fill="none" stroke="black" points="94.4258,-84.5001 84.4258,-88 94.4257,-91.5001 94.4258,-84.5001"/>
</g>
<!-- \\Dz_Security_Hash -->
<g id="node4" class="node"><title>\\Dz_Security_Hash</title>
<g id="a_node4"><a xlink:href="Security.Hash.html" xlink:title="Dz_Security_Hash" target="_parent">
<polygon fill="none" stroke="black" points="281.5,-52 156.5,-52 156.5,-16 281.5,-16 281.5,-52"/>
<text text-anchor="middle" x="219" y="-31.2" font-family="Courier,monospace" font-size="11.00">Dz_Security_Hash</text>
</a>
</g>
</g>
</g>
</svg>
